<?xml version="1.0" standalone="no"?>
<!DOCTYPE svg PUBLIC "-//W3C//DTD SVG 20010904//EN"
 "http://www.w3.org/TR/2001/REC-SVG-20010904/DTD/svg10.dtd">
<svg version="1.0" xmlns="http://www.w3.org/2000/svg"
 width="219.000000pt" height="220.000000pt" viewBox="0 0 219.000000 220.000000"
 preserveAspectRatio="xMidYMid meet">

<g transform="translate(0.000000,220.000000) scale(0.100000,-0.100000)"
fill="#000000" stroke="none">
<path d="M0 1100 l0 -1100 1095 0 1095 0 0 1100 0 1100 -1095 0 -1095 0 0
-1100z m1292 483 c312 -146 314 -585 4 -739 -205 -101 -444 -17 -547 193 -64
129 -47 304 39 418 87 115 198 167 347 162 76 -2 100 -7 157 -34z m-478 -975
c5 -45 3 -58 -7 -58 -20 0 -38 87 -24 117 14 31 22 15 31 -59z m104 75 c-22
-3 -28 -10 -28 -29 0 -17 5 -24 20 -24 11 0 20 -4 20 -9 0 -5 -9 -7 -20 -4
-17 5 -20 0 -20 -27 0 -31 2 -32 30 -26 17 3 30 1 30 -4 0 -6 -21 -10 -47 -10
l-48 0 3 70 4 70 41 -1 c30 -2 34 -3 15 -6z m102 -13 c-11 -11 -20 -33 -20
-49 0 -54 53 -80 92 -44 22 20 24 11 2 -11 -38 -39 -124 -1 -124 55 0 31 30
69 55 69 12 0 11 -4 -5 -20z m80 3 c0 -10 -4 -14 -8 -8 -4 6 -11 13 -16 18 -5
4 -2 7 7 7 10 0 17 -8 17 -17z m124 11 c20 -8 21 -53 1 -60 -12 -5 -10 -12 11
-40 20 -26 23 -34 11 -34 -33 0 -71 65 -47 80 17 10 8 44 -13 48 -15 3 -17 -5
-17 -62 0 -52 -3 -66 -15 -66 -12 0 -15 14 -15 70 l0 70 34 0 c19 0 41 -3 50
-6z m88 -50 c2 -41 8 -60 21 -68 31 -20 51 4 58 70 l6 59 1 -62 c2 -52 -1 -64
-17 -73 -29 -15 -67 -12 -85 6 -22 21 -23 124 -1 124 10 0 15 -15 17 -56z
m226 14 c2 28 8 42 18 42 11 0 14 -15 14 -66 0 -74 2 -74 -67 -10 l-33 30 0
-47 c0 -35 -4 -47 -15 -47 -12 0 -15 15 -15 71 l0 72 48 -44 47 -44 3 43z
m-827 -8 c25 -44 34 -49 43 -24 4 9 9 14 12 11 6 -6 -27 -67 -36 -67 -3 0 -15
16 -27 36 l-21 37 -7 -42 c-11 -68 -21 -46 -11 24 6 36 13 65 17 65 4 0 18
-18 30 -40z"/>
<path d="M928 1363 l32 -4 -2 -162 -3 -162 -35 -17 -35 -18 85 1 c71 1 80 2
52 10 -46 14 -53 41 -50 193 l3 131 54 -110 c29 -60 53 -114 52 -120 -1 -5 -4
-27 -7 -47 -5 -33 -3 -39 20 -49 20 -10 30 -9 51 5 30 20 31 37 5 94 l-20 44
51 86 c28 48 53 89 55 91 2 2 4 -68 4 -157 0 -159 0 -161 -22 -165 -13 -2 13
-4 57 -4 44 0 68 2 53 4 l-28 4 0 174 0 174 28 4 c15 2 2 5 -29 6 l-57 1 -58
-102 -58 -102 -48 102 -48 102 -67 -2 c-38 0 -53 -3 -35 -5z m182 -325 c0 -10
-5 -18 -10 -18 -15 0 -23 27 -16 47 6 15 8 15 16 3 6 -8 10 -23 10 -32z"/>
</g>
</svg>
