<svg id="Layer_1" height="512" viewBox="0 0 512 512" width="512" xmlns="http://www.w3.org/2000/svg" data-name="Layer 1"><path d="m55.73 451.06a33.226 33.226 0 0 1 0-46.98l.57-.57 95.74-95.74 12.91-12.91 24.07 2.94 24.08-24.07.28-27.29 14.7-14.71-20-20-14.7 14.71-.28 27.29-24.08 24.07-24.07-2.94-12.91 12.91-95.74 95.74-.57.57a33.226 33.226 0 0 0 0 46.98z" fill="#d4e1f4"/><path d="m490.242 21.757a6 6 0 0 0 -6.778-1.2l-45.636 21.287.005.011a5.966 5.966 0 0 0 -1.711 1.184l-198.363 198.361 32.839 32.84 198.363-198.362a5.97 5.97 0 0 0 1.184-1.712l.011.005 21.282-45.635a6 6 0 0 0 -1.196-6.779zm-223.887 239.757-15.869-15.869 186.454-186.454 2.121 9.243a6 6 0 0 0 4.506 4.506l9.243 2.12zm194.977-196.814-11.417-2.618-2.615-11.413 26.3-12.264z" fill="#1ae5be"/><g fill="#0635c9"><path d="m96.538 441.45a25.917 25.917 0 0 0 18.384-7.6l67.458-67.458a26 26 0 0 0 -36.769-36.769l-67.458 67.454a25.988 25.988 0 0 0 18.385 44.373zm-9.9-35.888 67.462-67.457a14 14 0 0 1 19.8 19.8l-67.458 67.458a14 14 0 0 1 -19.8-19.8z"/><path d="m76.7 480.514a39.218 39.218 0 0 0 55.461 0l109.217-109.214a6 6 0 0 0 1.714-4.969l-2.583-21.173 20.276-20.276 24.841-.254a6 6 0 0 0 4.182-1.754l14.708-14.708a6 6 0 0 0 0-8.486l-92.189-92.189a6 6 0 0 0 -8.485 0l-14.708 14.709a5.972 5.972 0 0 0 -1.751 4.181h-.006l-.255 24.842-20.275 20.275-21.173-2.583a6 6 0 0 0 -4.969 1.714l-109.219 109.21a39.218 39.218 0 0 0 0 55.461zm56.033-28.857 67.457-67.457a14.01 14.01 0 0 1 14.589-3.273l-85.32 85.318a14 14 0 0 1 3.273-14.588zm101.467-117.163-56.693-56.694 15.589-15.59 56.693 56.69zm26.535-21.616-61.612-61.611.107-10.493 72 72zm-52.65-92.666 83.7 83.7-6.223 6.223-83.7-83.7zm-80.285 91.598-67.458 67.458a13.951 13.951 0 0 1 -14.594 3.279l85.326-85.325a14.006 14.006 0 0 1 -3.274 14.588zm-90.692 79.89a26.027 26.027 0 0 0 31.719-3.948l67.458-67.452a26.04 26.04 0 0 0 3.743-32.028l7.094-7.093 19.12 2.332 62.252 62.252 2.332 19.12-7.093 7.093a26.041 26.041 0 0 0 -32.027 3.743l-67.458 67.458a26.044 26.044 0 0 0 -3.938 31.715 27.216 27.216 0 0 1 -35.125-2.859l-45.214-45.219a27.257 27.257 0 0 1 -2.863-35.114z"/></g></svg>